# xmcd
#
# Track frame offsets:
#	150
#	16483
#	37832
#	54886
#	75968
#	95145
#	112609
#	132339
#	153790
#	176310
#	196347
#	214519
#	232139
#
# Disc length: 3337 seconds
#
# Revision: 5
# Processed by: cddbd v1.5.2PL0 Copyright (c) Steve Scherf et al.
# Submitted via: EasyCDDAExtractor 15.3.0.1
#
DISCID=920d070d
DTITLE=Milly Quezada - Exitos Y Mas...
DYEAR=2001
DGENRE=Latin
TTITLE0=Infiel
TTITLE1=Se Fue
TTITLE2=Para Darte Mi Vida (Duo Con Elvis Crespo)
TTITLE3=Vive
TTITLE4=Quizas
TTITLE5=En Tus Manos
TTITLE6=Porque Me Amaste (Because You Loved Me)
TTITLE7=Lo Tengo Todo
TTITLE8=Entre Tu Cuerpo Y El Mio
TTITLE9=Para Olvidarte
TTITLE10=Pideme (Merengue)
TTITLE11=Mesita De Noche
TTITLE12=Devuelveme
EXTD=
EXTT0=
EXTT1=
EXTT2=
EXTT3=
EXTT4=
EXTT5=
EXTT6=
EXTT7=
EXTT8=
EXTT9=
EXTT10=
EXTT11=
EXTT12=
PLAYORDER=
